<mxfile host="app.diagrams.net" modified="2023-12-18T11:35:30.593Z" agent="Mozilla/5.0 (Windows NT 10.0; Win64; x64; rv:120.0) Gecko/20100101 Firefox/120.0" etag="VuxbQTmdmEygVsDWA3EG" version="22.1.11" type="github">
  <diagram name="Page-1" id="w73oYDgBXrICp-ajVwqz">
    <mxGraphModel dx="1434" dy="820" grid="0" gridSize="10" guides="1" tooltips="1" connect="1" arrows="1" fold="1" page="1" pageScale="1" pageWidth="850" pageHeight="1100" background="#000000" math="0" shadow="0">
      <root>
        <mxCell id="0" />
        <mxCell id="1" parent="0" />
        <mxCell id="vIzcnfgWgh70xaCTr_LJ-1" value="" style="verticalLabelPosition=bottom;verticalAlign=top;html=1;shadow=0;dashed=0;strokeWidth=1;shape=mxgraph.android.phone2;strokeColor=#c0c0c0;" vertex="1" parent="1">
          <mxGeometry x="405" y="64" width="41" height="78" as="geometry" />
        </mxCell>
        <mxCell id="vIzcnfgWgh70xaCTr_LJ-2" value="&lt;div style=&quot;font-size: 13px;&quot;&gt;&lt;font color=&quot;#ffffff&quot; style=&quot;font-size: 18px;&quot;&gt;Api-gateway&lt;/font&gt;&lt;/div&gt;" style="rounded=1;whiteSpace=wrap;html=1;strokeColor=#000000;fillColor=#666666;" vertex="1" parent="1">
          <mxGeometry x="87" y="203" width="677" height="31" as="geometry" />
        </mxCell>
        <mxCell id="vIzcnfgWgh70xaCTr_LJ-3" value="" style="shape=or;whiteSpace=wrap;html=1;rotation=-90;fillColor=#666666;" vertex="1" parent="1">
          <mxGeometry x="410" y="155" width="31" height="66" as="geometry" />
        </mxCell>
        <mxCell id="vIzcnfgWgh70xaCTr_LJ-4" value="" style="endArrow=classic;startArrow=classic;html=1;rounded=0;entryX=0.488;entryY=0.987;entryDx=0;entryDy=0;entryPerimeter=0;exitX=1;exitY=0.5;exitDx=0;exitDy=0;exitPerimeter=0;strokeColor=#FFFFFF;" edge="1" parent="1" source="vIzcnfgWgh70xaCTr_LJ-3" target="vIzcnfgWgh70xaCTr_LJ-1">
          <mxGeometry width="50" height="50" relative="1" as="geometry">
            <mxPoint x="399" y="503" as="sourcePoint" />
            <mxPoint x="449" y="453" as="targetPoint" />
          </mxGeometry>
        </mxCell>
        <mxCell id="vIzcnfgWgh70xaCTr_LJ-5" value="&lt;div&gt;&lt;font color=&quot;#ffffff&quot;&gt;external port: auto-generated&lt;/font&gt;&lt;/div&gt;&lt;div&gt;&lt;font color=&quot;#ffffff&quot;&gt;ports: 8083:8083&lt;br&gt;&lt;/font&gt;&lt;/div&gt;" style="text;html=1;strokeColor=none;fillColor=none;align=center;verticalAlign=middle;whiteSpace=wrap;rounded=0;" vertex="1" parent="1">
          <mxGeometry x="191" y="149" width="239" height="54" as="geometry" />
        </mxCell>
        <mxCell id="vIzcnfgWgh70xaCTr_LJ-6" value="&lt;div&gt;&lt;font color=&quot;#ffffff&quot;&gt;Endpoints:&lt;/font&gt;&lt;/div&gt;&lt;div&gt;&lt;font color=&quot;#ffffff&quot;&gt;GET /users -&amp;gt; Get all users&lt;/font&gt;&lt;/div&gt;&lt;div&gt;&lt;font color=&quot;#ffffff&quot;&gt;GET /users/{userId} -&amp;gt; Get a specific user&lt;/font&gt;&lt;/div&gt;&lt;div&gt;&lt;font color=&quot;#ffffff&quot;&gt;&lt;br&gt;&lt;/font&gt;&lt;/div&gt;&lt;div&gt;&lt;font color=&quot;#ffffff&quot;&gt;GET /tasks -&amp;gt; Get all tasks&lt;/font&gt;&lt;/div&gt;&lt;div&gt;&lt;font color=&quot;#ffffff&quot;&gt;GET /tasks/{id} -&amp;gt; Get a specific task&lt;/font&gt;&lt;/div&gt;&lt;div&gt;&lt;font color=&quot;#ffffff&quot;&gt;POST /tasks -&amp;gt; Create a new task&lt;/font&gt;&lt;/div&gt;&lt;div&gt;&lt;font color=&quot;#ffffff&quot;&gt;PUT /tasks/{id} -&amp;gt; Update a specific task&lt;/font&gt;&lt;/div&gt;&lt;div&gt;&lt;font color=&quot;#ffffff&quot;&gt;DELETE /tasks/{id} -&amp;gt; Delete a task&lt;/font&gt;&lt;/div&gt;&lt;div&gt;&lt;font color=&quot;#ffffff&quot;&gt;&lt;br&gt;&lt;/font&gt;&lt;/div&gt;&lt;div&gt;&lt;font color=&quot;#ffffff&quot;&gt;GET /notifications -&amp;gt; Get all notifications&lt;/font&gt;&lt;/div&gt;&lt;div&gt;&lt;font color=&quot;#ffffff&quot;&gt;POST /notifications -&amp;gt; Create a new notification&lt;br&gt;&lt;/font&gt;&lt;/div&gt;" style="text;html=1;strokeColor=none;fillColor=none;align=center;verticalAlign=middle;whiteSpace=wrap;rounded=0;" vertex="1" parent="1">
          <mxGeometry x="461" y="49" width="301" height="130" as="geometry" />
        </mxCell>
        <mxCell id="vIzcnfgWgh70xaCTr_LJ-7" value="&lt;font color=&quot;#ffffff&quot;&gt;User-service&lt;/font&gt;" style="rounded=1;whiteSpace=wrap;html=1;fillColor=#666666;" vertex="1" parent="1">
          <mxGeometry x="329" y="375" width="192" height="31" as="geometry" />
        </mxCell>
        <mxCell id="vIzcnfgWgh70xaCTr_LJ-8" value="" style="shape=or;whiteSpace=wrap;html=1;direction=north;fillColor=#666666;" vertex="1" parent="1">
          <mxGeometry x="385.5" y="338" width="80" height="37" as="geometry" />
        </mxCell>
        <mxCell id="vIzcnfgWgh70xaCTr_LJ-9" value="" style="endArrow=classic;html=1;rounded=0;entryX=1;entryY=0.5;entryDx=0;entryDy=0;entryPerimeter=0;exitX=0.5;exitY=1;exitDx=0;exitDy=0;strokeColor=#FFFFFF;" edge="1" parent="1" source="vIzcnfgWgh70xaCTr_LJ-2" target="vIzcnfgWgh70xaCTr_LJ-8">
          <mxGeometry width="50" height="50" relative="1" as="geometry">
            <mxPoint x="399" y="447" as="sourcePoint" />
            <mxPoint x="449" y="397" as="targetPoint" />
          </mxGeometry>
        </mxCell>
        <mxCell id="vIzcnfgWgh70xaCTr_LJ-10" value="" style="rounded=1;whiteSpace=wrap;html=1;fillColor=#67AB9F;" vertex="1" parent="1">
          <mxGeometry x="143" y="234" width="564" height="59" as="geometry" />
        </mxCell>
        <mxCell id="vIzcnfgWgh70xaCTr_LJ-11" value="&lt;font color=&quot;#ffffff&quot;&gt;Api-gateway&lt;/font&gt;" style="rounded=1;whiteSpace=wrap;html=1;fillColor=#EA6B66;" vertex="1" parent="1">
          <mxGeometry x="165" y="244.5" width="520" height="38" as="geometry" />
        </mxCell>
        <mxCell id="vIzcnfgWgh70xaCTr_LJ-12" value="&lt;div&gt;Service&lt;/div&gt;" style="rounded=1;whiteSpace=wrap;html=1;fillColor=#666666;" vertex="1" parent="1">
          <mxGeometry x="21" y="18" width="54" height="35" as="geometry" />
        </mxCell>
        <mxCell id="vIzcnfgWgh70xaCTr_LJ-15" style="edgeStyle=orthogonalEdgeStyle;rounded=0;orthogonalLoop=1;jettySize=auto;html=1;exitX=1;exitY=1;exitDx=0;exitDy=0;" edge="1" parent="1" source="vIzcnfgWgh70xaCTr_LJ-13">
          <mxGeometry relative="1" as="geometry">
            <mxPoint x="73" y="87" as="targetPoint" />
          </mxGeometry>
        </mxCell>
        <mxCell id="vIzcnfgWgh70xaCTr_LJ-13" value="POD" style="rounded=1;whiteSpace=wrap;html=1;fillColor=#67AB9F;" vertex="1" parent="1">
          <mxGeometry x="83" y="18" width="54" height="35" as="geometry" />
        </mxCell>
        <mxCell id="vIzcnfgWgh70xaCTr_LJ-16" style="edgeStyle=orthogonalEdgeStyle;rounded=0;orthogonalLoop=1;jettySize=auto;html=1;exitX=1;exitY=0.5;exitDx=0;exitDy=0;" edge="1" parent="1" source="vIzcnfgWgh70xaCTr_LJ-14">
          <mxGeometry relative="1" as="geometry">
            <mxPoint x="99" y="82" as="targetPoint" />
          </mxGeometry>
        </mxCell>
        <mxCell id="vIzcnfgWgh70xaCTr_LJ-14" value="&lt;div&gt;Container&lt;/div&gt;" style="rounded=1;whiteSpace=wrap;html=1;fillColor=#EA6B66;" vertex="1" parent="1">
          <mxGeometry x="21" y="64" width="61" height="35" as="geometry" />
        </mxCell>
        <mxCell id="vIzcnfgWgh70xaCTr_LJ-17" value="Volume" style="shape=cylinder3;whiteSpace=wrap;html=1;boundedLbl=1;backgroundOutline=1;size=15;" vertex="1" parent="1">
          <mxGeometry x="89" y="63" width="57" height="43" as="geometry" />
        </mxCell>
        <mxCell id="vIzcnfgWgh70xaCTr_LJ-18" value="" style="rounded=1;whiteSpace=wrap;html=1;fillColor=#67AB9F;" vertex="1" parent="1">
          <mxGeometry x="354" y="406" width="143" height="46" as="geometry" />
        </mxCell>
        <mxCell id="vIzcnfgWgh70xaCTr_LJ-19" value="&lt;div&gt;&lt;font color=&quot;#ffffff&quot;&gt;User-service&lt;/font&gt;&lt;/div&gt;" style="rounded=1;whiteSpace=wrap;html=1;fillColor=#EA6B66;" vertex="1" parent="1">
          <mxGeometry x="369.5" y="414.5" width="112" height="29" as="geometry" />
        </mxCell>
        <mxCell id="vIzcnfgWgh70xaCTr_LJ-20" value="&lt;font color=&quot;#ffffff&quot;&gt;ports 8081:8081&lt;/font&gt;" style="text;html=1;strokeColor=none;fillColor=none;align=center;verticalAlign=middle;whiteSpace=wrap;rounded=0;" vertex="1" parent="1">
          <mxGeometry x="278" y="341.5" width="105" height="30" as="geometry" />
        </mxCell>
        <mxCell id="vIzcnfgWgh70xaCTr_LJ-21" value="" style="shape=or;whiteSpace=wrap;html=1;direction=north;fillColor=#666666;" vertex="1" parent="1">
          <mxGeometry x="385" y="550" width="80" height="37" as="geometry" />
        </mxCell>
        <mxCell id="vIzcnfgWgh70xaCTr_LJ-22" value="&lt;font color=&quot;#ffffff&quot;&gt;User-service&lt;/font&gt;" style="rounded=1;whiteSpace=wrap;html=1;fillColor=#666666;" vertex="1" parent="1">
          <mxGeometry x="329" y="587" width="192" height="31" as="geometry" />
        </mxCell>
        <mxCell id="vIzcnfgWgh70xaCTr_LJ-23" value="&lt;div&gt;&lt;br&gt;&lt;/div&gt;&lt;div&gt;&lt;br&gt;&lt;/div&gt;&lt;div&gt;&lt;br&gt;&lt;/div&gt;&lt;div&gt;&lt;br&gt;&lt;/div&gt;&lt;div&gt;&lt;br&gt;&lt;/div&gt;&lt;div&gt;mysql:latest&lt;br&gt;&lt;/div&gt;" style="rounded=1;whiteSpace=wrap;html=1;fillColor=#67AB9F;" vertex="1" parent="1">
          <mxGeometry x="354" y="618" width="143" height="98" as="geometry" />
        </mxCell>
        <mxCell id="vIzcnfgWgh70xaCTr_LJ-24" value="" style="shape=cylinder3;whiteSpace=wrap;html=1;boundedLbl=1;backgroundOutline=1;size=15;" vertex="1" parent="1">
          <mxGeometry x="401" y="632.25" width="48" height="60.5" as="geometry" />
        </mxCell>
        <mxCell id="vIzcnfgWgh70xaCTr_LJ-25" value="&lt;font color=&quot;#ffffff&quot;&gt;ports: 3306:3306&lt;/font&gt;" style="text;html=1;strokeColor=none;fillColor=none;align=center;verticalAlign=middle;whiteSpace=wrap;rounded=0;" vertex="1" parent="1">
          <mxGeometry x="273" y="552" width="112.5" height="31.5" as="geometry" />
        </mxCell>
        <mxCell id="vIzcnfgWgh70xaCTr_LJ-26" value="" style="endArrow=classic;html=1;rounded=0;entryX=0.5;entryY=1;entryDx=0;entryDy=0;exitX=1;exitY=0.5;exitDx=0;exitDy=0;exitPerimeter=0;strokeColor=#FFFFFF;" edge="1" parent="1" source="vIzcnfgWgh70xaCTr_LJ-21" target="vIzcnfgWgh70xaCTr_LJ-18">
          <mxGeometry width="50" height="50" relative="1" as="geometry">
            <mxPoint x="399" y="627" as="sourcePoint" />
            <mxPoint x="449" y="577" as="targetPoint" />
          </mxGeometry>
        </mxCell>
        <mxCell id="vIzcnfgWgh70xaCTr_LJ-27" value="" style="shape=or;whiteSpace=wrap;html=1;direction=north;fillColor=#666666;" vertex="1" parent="1">
          <mxGeometry x="622" y="629" width="80" height="37" as="geometry" />
        </mxCell>
        <mxCell id="vIzcnfgWgh70xaCTr_LJ-28" value="&lt;font color=&quot;#ffffff&quot;&gt;Notification-service&lt;/font&gt;" style="rounded=1;whiteSpace=wrap;html=1;fillColor=#666666;" vertex="1" parent="1">
          <mxGeometry x="566" y="666" width="192" height="31" as="geometry" />
        </mxCell>
        <mxCell id="vIzcnfgWgh70xaCTr_LJ-29" value="&lt;div&gt;&lt;br&gt;&lt;/div&gt;&lt;div&gt;&lt;br&gt;&lt;/div&gt;&lt;div&gt;&lt;br&gt;&lt;/div&gt;&lt;div&gt;&lt;br&gt;&lt;/div&gt;&lt;div&gt;&lt;br&gt;&lt;/div&gt;&lt;div&gt;mongo:latest&lt;br&gt;&lt;/div&gt;" style="rounded=1;whiteSpace=wrap;html=1;fillColor=#67AB9F;" vertex="1" parent="1">
          <mxGeometry x="591" y="697" width="143" height="98" as="geometry" />
        </mxCell>
        <mxCell id="vIzcnfgWgh70xaCTr_LJ-30" value="" style="shape=cylinder3;whiteSpace=wrap;html=1;boundedLbl=1;backgroundOutline=1;size=15;" vertex="1" parent="1">
          <mxGeometry x="638" y="711.25" width="48" height="60.5" as="geometry" />
        </mxCell>
        <mxCell id="vIzcnfgWgh70xaCTr_LJ-31" value="&lt;font color=&quot;#ffffff&quot;&gt;ports: 3306:3306&lt;/font&gt;" style="text;html=1;strokeColor=none;fillColor=none;align=center;verticalAlign=middle;whiteSpace=wrap;rounded=0;" vertex="1" parent="1">
          <mxGeometry x="510" y="631" width="112.5" height="31.5" as="geometry" />
        </mxCell>
        <mxCell id="vIzcnfgWgh70xaCTr_LJ-32" value="" style="shape=or;whiteSpace=wrap;html=1;direction=north;fillColor=#666666;" vertex="1" parent="1">
          <mxGeometry x="187" y="629" width="80" height="37" as="geometry" />
        </mxCell>
        <mxCell id="vIzcnfgWgh70xaCTr_LJ-33" value="&lt;font color=&quot;#ffffff&quot;&gt;Task-service&lt;/font&gt;" style="rounded=1;whiteSpace=wrap;html=1;fillColor=#666666;" vertex="1" parent="1">
          <mxGeometry x="131" y="666" width="192" height="31" as="geometry" />
        </mxCell>
        <mxCell id="vIzcnfgWgh70xaCTr_LJ-34" value="&lt;div&gt;&lt;br&gt;&lt;/div&gt;&lt;div&gt;&lt;br&gt;&lt;/div&gt;&lt;div&gt;&lt;br&gt;&lt;/div&gt;&lt;div&gt;&lt;br&gt;&lt;/div&gt;&lt;div&gt;&lt;br&gt;&lt;/div&gt;&lt;div&gt;mysql:latest&lt;br&gt;&lt;/div&gt;" style="rounded=1;whiteSpace=wrap;html=1;fillColor=#67AB9F;" vertex="1" parent="1">
          <mxGeometry x="156" y="697" width="143" height="98" as="geometry" />
        </mxCell>
        <mxCell id="vIzcnfgWgh70xaCTr_LJ-35" value="" style="shape=cylinder3;whiteSpace=wrap;html=1;boundedLbl=1;backgroundOutline=1;size=15;" vertex="1" parent="1">
          <mxGeometry x="203" y="711.25" width="48" height="60.5" as="geometry" />
        </mxCell>
        <mxCell id="vIzcnfgWgh70xaCTr_LJ-36" value="&lt;font color=&quot;#ffffff&quot;&gt;ports: 3306:3306&lt;/font&gt;" style="text;html=1;strokeColor=none;fillColor=none;align=center;verticalAlign=middle;whiteSpace=wrap;rounded=0;" vertex="1" parent="1">
          <mxGeometry x="75" y="631" width="112.5" height="31.5" as="geometry" />
        </mxCell>
        <mxCell id="vIzcnfgWgh70xaCTr_LJ-37" value="&lt;font color=&quot;#ffffff&quot;&gt;Notification-service&lt;/font&gt;" style="rounded=1;whiteSpace=wrap;html=1;fillColor=#666666;" vertex="1" parent="1">
          <mxGeometry x="572" y="486" width="192" height="31" as="geometry" />
        </mxCell>
        <mxCell id="vIzcnfgWgh70xaCTr_LJ-38" value="" style="shape=or;whiteSpace=wrap;html=1;direction=north;fillColor=#666666;" vertex="1" parent="1">
          <mxGeometry x="628.5" y="449" width="80" height="37" as="geometry" />
        </mxCell>
        <mxCell id="vIzcnfgWgh70xaCTr_LJ-39" value="" style="rounded=1;whiteSpace=wrap;html=1;fillColor=#67AB9F;" vertex="1" parent="1">
          <mxGeometry x="597" y="517" width="143" height="46" as="geometry" />
        </mxCell>
        <mxCell id="vIzcnfgWgh70xaCTr_LJ-40" value="&lt;div&gt;&lt;font color=&quot;#ffffff&quot;&gt;Notification-service&lt;/font&gt;&lt;/div&gt;" style="rounded=1;whiteSpace=wrap;html=1;fillColor=#EA6B66;" vertex="1" parent="1">
          <mxGeometry x="612.5" y="525.5" width="112" height="29" as="geometry" />
        </mxCell>
        <mxCell id="vIzcnfgWgh70xaCTr_LJ-41" value="&lt;font color=&quot;#ffffff&quot;&gt;ports 8082:8082&lt;/font&gt;" style="text;html=1;strokeColor=none;fillColor=none;align=center;verticalAlign=middle;whiteSpace=wrap;rounded=0;" vertex="1" parent="1">
          <mxGeometry x="521" y="452.5" width="105" height="30" as="geometry" />
        </mxCell>
        <mxCell id="vIzcnfgWgh70xaCTr_LJ-42" value="&lt;font color=&quot;#ffffff&quot;&gt;Task-service&lt;/font&gt;" style="rounded=1;whiteSpace=wrap;html=1;fillColor=#666666;" vertex="1" parent="1">
          <mxGeometry x="126" y="486" width="192" height="31" as="geometry" />
        </mxCell>
        <mxCell id="vIzcnfgWgh70xaCTr_LJ-43" value="" style="shape=or;whiteSpace=wrap;html=1;direction=north;fillColor=#666666;" vertex="1" parent="1">
          <mxGeometry x="182.5" y="449" width="80" height="37" as="geometry" />
        </mxCell>
        <mxCell id="vIzcnfgWgh70xaCTr_LJ-44" value="" style="rounded=1;whiteSpace=wrap;html=1;fillColor=#67AB9F;" vertex="1" parent="1">
          <mxGeometry x="151" y="517" width="143" height="46" as="geometry" />
        </mxCell>
        <mxCell id="vIzcnfgWgh70xaCTr_LJ-45" value="&lt;div&gt;&lt;font color=&quot;#ffffff&quot;&gt;Task-service&lt;/font&gt;&lt;/div&gt;" style="rounded=1;whiteSpace=wrap;html=1;fillColor=#EA6B66;" vertex="1" parent="1">
          <mxGeometry x="166.5" y="525.5" width="112" height="29" as="geometry" />
        </mxCell>
        <mxCell id="vIzcnfgWgh70xaCTr_LJ-46" value="&lt;font color=&quot;#ffffff&quot;&gt;ports 8080:8080&lt;/font&gt;" style="text;html=1;strokeColor=none;fillColor=none;align=center;verticalAlign=middle;whiteSpace=wrap;rounded=0;" vertex="1" parent="1">
          <mxGeometry x="75" y="452.5" width="105" height="30" as="geometry" />
        </mxCell>
        <mxCell id="vIzcnfgWgh70xaCTr_LJ-47" value="" style="endArrow=classic;html=1;rounded=0;entryX=1;entryY=0.5;entryDx=0;entryDy=0;entryPerimeter=0;exitX=0;exitY=0.5;exitDx=0;exitDy=0;strokeColor=#FFFFFF;" edge="1" parent="1" source="vIzcnfgWgh70xaCTr_LJ-18" target="vIzcnfgWgh70xaCTr_LJ-43">
          <mxGeometry width="50" height="50" relative="1" as="geometry">
            <mxPoint x="399" y="627" as="sourcePoint" />
            <mxPoint x="449" y="577" as="targetPoint" />
            <Array as="points">
              <mxPoint x="223" y="429" />
            </Array>
          </mxGeometry>
        </mxCell>
        <mxCell id="vIzcnfgWgh70xaCTr_LJ-48" value="" style="endArrow=classic;html=1;rounded=0;entryX=1;entryY=0.5;entryDx=0;entryDy=0;entryPerimeter=0;exitX=0;exitY=0.5;exitDx=0;exitDy=0;strokeColor=#FFFFFF;" edge="1" parent="1" target="vIzcnfgWgh70xaCTr_LJ-38">
          <mxGeometry width="50" height="50" relative="1" as="geometry">
            <mxPoint x="497" y="432" as="sourcePoint" />
            <mxPoint x="366" y="452" as="targetPoint" />
            <Array as="points">
              <mxPoint x="669" y="432" />
            </Array>
          </mxGeometry>
        </mxCell>
      </root>
    </mxGraphModel>
  </diagram>
</mxfile>
